<?xml version="1.0" encoding="UTF-8"?>
<!-- Generator: Adobe Illustrator 26.0.1, SVG Export Plug-In . SVG Version: 6.00 Build 0)  -->
<svg version="1.1" id="katman_1" xmlns="http://www.w3.org/2000/svg" xmlns:xlink="http://www.w3.org/1999/xlink" x="0px" y="0px" viewBox="0 0 480.6 317.1" style="enable-background:new 0 0 480.6 317.1;" xml:space="preserve">
<style type="text/css">
	.st0{fill:#165858;}
	.st1{fill:none;}
	.st2{fill:#D9DBDB;}
	.st3{fill:#404042;}
	.st4{fill:#4F7577;}
	.st5{fill:#FFFFFF;}
</style>
<g>
	<path class="st0" d="M270.2,141.8c-0.9-0.7-2.1-0.8-3.2-0.9c-4.8-0.3-9.7-0.6-14.5-1c-2-0.1-4.2-0.2-6,0.8c-1.7,1-2.6,2.9-3.4,4.6   c-7.4,15.4-14.7,30.9-22.1,46.3c-3-14.9-6-29.8-9-44.7c-0.7-3.4-1.5-7-4.2-9.2c-6.2-5.1-18.3,0.5-22.1-6.6c-1.6-3-0.3-7.1,2.4-9.2   c2.7-2.1,6.5-2.5,9.9-1.8c3.6,0.7,7.8,2.3,10.5-0.1c2.1-1.9,1.9-5.1,3-7.7c2.9-6.6,12.1-6.4,19.1-5.2c1.5,0.3,3.1,0.6,4.1,1.7   c1.6,1.8,0.8,4.7,0.9,7.1c0.2,4.8,4.3,8.8,8.8,10.3c4.6,1.6,9.5,1.2,14.3,0.9c-3.2-38.3-6.5-76.7-9.8-115c-0.2-2.1-0.4-4.4-1.9-5.9   c-1.3-1.4-3.2-1.8-5.1-2.2c-30.3-5.9-61.7-5.1-92.2-0.7C123.2,7.4,95.1,15,76.9,35.2c-1.2,1.3-2.5,2.8-4.2,3.2   c-2.2,0.6-4.5-0.7-6.5-1.7C52,29.5,34,30.5,20.6,39.2C7.3,47.9-0.8,64,0.1,79.9C0.4,85.4,1.8,91.1,5.7,95c6.7,6.9,20.1,5,24.5-3.6   c5.8-11-2.8-25.6,3.3-36.4c5.3-9.3,19.2-10.2,28.4-4.7c1.3,0.8,2.6,1.7,3.4,3c1.6,2.9,0.2,6.5-1.2,9.5   c-20,42.4-32.2,88.5-35.5,135.2c-0.5,6.3-0.8,12.7-0.3,19c0.2,3.7,0.7,7.4,1.6,11c0.7,3,2.6,5.2,4.8,7.4   c4.5,4.6,10.1,7.7,15.8,10.6c41.1,21.4,86.2,35,132.2,40.1c5.4,0.6,12,0.6,15.1-3.9c1.8-2.5,1.9-5.8,2-8.9   c0.4-19.5,0.9-38.9,1.3-58.4c5.4,15.6,10.8,31.2,16.2,46.8c6.5-15.8,13-31.6,19.6-47.4c-0.8,20-1.2,40-1.2,60.1   c0,3.2,0.7,7.3,3.9,7.8c1.2,0.2,2.4-0.2,3.5-0.8c9.4-4.4,15.1-14.5,17.3-24.7c2.2-10.2,1.5-20.7,1.7-31.1   c0.5-26.5,6.8-52.5,9.6-78.9C271.7,145.2,271.7,143,270.2,141.8z M222.9,75.5c0-0.1,0.1-0.2,0.1-0.2c2.2-6.9,4.4-13.7,6.6-20.6   c0.1-0.3,0.2-0.7,0.5-0.8c0.7-0.3,1.2,0.7,1.3,1.4c1.2,7.7,1.7,15.6,1.4,23.4c0,0.7-0.1,1.4-0.5,1.9c-0.3,0.4-0.9,0.6-1.4,0.7   c-2.6,0.6-8.1,1-8.5-2.7C222.3,77.5,222.6,76.5,222.9,75.5z M173.4,147.3c-2.8,13.4-3.7,27.2-5.2,40.8c-0.6,4.9-4.4,8.5-9.2,8.9   c-15.6,1-31.1-0.2-46.3-3.2c-9-1.8-18-4.4-26.7-7.7c-10.9-4.1-21.6-8.8-32-14c-6.4-3.3-7.9-10.6-7.5-16.9   c0.7-10.2,2.7-20.3,4.8-30.3c3.9-17.8,9.7-35.1,17.9-51.4C75,62.2,80.7,51,87.8,40.7c6-8.8,15.4-14.2,26.1-16.3   c15.5-3,31.2-5.2,46.7-8.2c13.2-2.5,26.5-3.3,39.8-2.9c6,0.2,11.2,2.9,12.1,6.9c0.4,2.2-0.2,4.6-0.4,7c-3.8-0.8-7-1.3-10.1-2.1   c-15.9-4.1-29.8,0.3-41.2,11.3c-10.5,10.2-13.7,23.4-10.4,37.7c1.8,7.9,12.8,11,20,7.6c8.7-4.1,3.6-10.8,4.1-16.1   c0.8-8.1,0.6-16.2,6.8-22.6c5-5.3,13.8-7.4,20.5-4.6c2.5,1,2.3,2.4,1.5,4.6c-4.8,13.1-10.2,26.1-13.9,39.5   C183.3,103.9,177.9,125.5,173.4,147.3z"/>
	<path class="st1" d="M203,41.4c0.8-2.3,1.1-3.6-1.5-4.6c-6.7-2.7-15.5-0.6-20.5,4.6c-6.2,6.5-6,14.5-6.8,22.6   c-0.5,5.3,4.6,12-4.1,16.1c-7.2,3.4-18.1,0.3-20-7.6c-3.3-14.3-0.1-27.5,10.4-37.7c11.4-11.1,25.3-15.4,41.2-11.3   c3.1,0.8,6.3,1.3,10.1,2.1c0.2-2.4,0.8-4.8,0.4-7c-0.8-4.1-6-6.8-12.1-6.9c-13.4-0.4-26.6,0.4-39.8,2.9   c-15.5,2.9-31.2,5.2-46.7,8.2c-10.6,2.1-20,7.5-26.1,16.3c-7.1,10.3-12.8,21.6-18.5,32.7c-8.2,16.3-14.1,33.6-17.9,51.4   c-2.2,10-4.1,20.2-4.8,30.3c-0.5,6.3,1,13.6,7.5,16.9c10.3,5.3,21.1,10,31.9,14c8.6,3.2,17.6,5.8,26.7,7.7   c15.3,3.1,30.7,4.3,46.3,3.2c4.8-0.3,8.7-4,9.2-8.9c1.6-13.6,2.4-27.4,5.2-40.8c4.5-21.7,9.9-43.3,15.9-64.7   C192.8,67.5,198.2,54.5,203,41.4z"/>
	<path class="st1" d="M386.9,177c-4-0.8-8.2-0.6-12.3-0.6c-0.6,0-1.7,1.2-1.8,1.9c-0.5,3.8-0.7,7.5-1.1,12.7   c5.6-0.8,10.6-1,15.2-2.5c1.8-0.6,3.4-4.2,3.6-6.6C390.6,180.4,388.4,177.4,386.9,177z"/>
	<path class="st1" d="M383,208.5c-4.3-0.4-8.7,0.4-13.3,0.8c0,5.4,0,10.3,0,17.1c6.3-2,12.1-3.1,17-5.8c2.1-1.1,3.5-5.6,3.2-8.4   C389.8,210.6,385.6,208.7,383,208.5z"/>
	<path class="st1" d="M338,76.1c-1.8,4.8-3.3,9.6-5.3,14.3c-1.9,4.3,0,6.1,3.9,6.9c1.4,0.3,2.9,0.3,5.5,0.6   c-0.9-7.7-1.8-14.5-2.6-21.4C339,76.4,338.5,76.3,338,76.1z"/>
	<path class="st1" d="M225.1,79.5c1,0,1.9-0.2,2.9-0.1c1.3,0.1,2.6,0.8,3.7,0.2c1-0.6,1.1-1.9,1.1-3.1c0-7.5-0.1-15-1.3-22.4   c-0.2-0.9-0.6-2.1-1.5-2.2c-2.4,7.3-4.8,14.6-7.2,22C221.9,76.2,221.8,79.5,225.1,79.5z"/>
	<path class="st1" d="M225.1,79.5c1,0,1.9-0.2,2.9-0.1c1.3,0.1,2.6,0.8,3.7,0.2c1-0.6,1.1-1.9,1.1-3.1c0-7.5-0.1-15-1.3-22.4   c-0.2-0.9-0.6-2.1-1.5-2.2c-2.4,7.3-4.8,14.6-7.2,22C221.9,76.2,221.8,79.5,225.1,79.5z"/>
	<path class="st1" d="M203,41.4c0.8-2.3,1.1-3.6-1.5-4.6c-6.7-2.7-15.5-0.6-20.5,4.6c-6.2,6.5-6,14.5-6.8,22.6   c-0.5,5.3,4.6,12-4.1,16.1c-7.2,3.4-18.1,0.3-20-7.6c-3.3-14.3-0.1-27.5,10.4-37.7c11.4-11.1,25.3-15.4,41.2-11.3   c3.1,0.8,6.3,1.3,10.1,2.1c0.2-2.4,0.8-4.8,0.4-7c-0.8-4.1-6-6.8-12.1-6.9c-13.4-0.4-26.6,0.4-39.8,2.9   c-15.5,2.9-31.2,5.2-46.7,8.2c-10.6,2.1-20,7.5-26.1,16.3c-7.1,10.3-12.8,21.6-18.5,32.7c-8.2,16.3-14.1,33.6-17.9,51.4   c-2.2,10-4.1,20.2-4.8,30.3c-0.5,6.3,1,13.6,7.5,16.9c10.3,5.3,21.1,10,31.9,14c8.6,3.2,17.6,5.8,26.7,7.7   c15.3,3.1,30.7,4.3,46.3,3.2c4.8-0.3,8.7-4,9.2-8.9c1.6-13.6,2.4-27.4,5.2-40.8c4.5-21.7,9.9-43.3,15.9-64.7   C192.8,67.5,198.2,54.5,203,41.4z"/>
	<g>
		<path class="st0" d="M472.1,156.1c-3.8,0.1-7.7-0.1-11.4-0.8c-4-0.8-6,0.3-6.1,3.9c0,2.8-0.2,5.6-0.3,8.5    c-0.6,16.2-1.4,32.4-1.7,48.7c0,1.5,2.4,4.5,3.5,4.3c7.3-0.7,13.6-4.1,18.8-9.2c0.8-0.8,0.7-2.8,0.7-4.2c0.1-7.6,0-15.2,0-22.9    c0.1-1.4,0-4.2,0.2-4.9l0.1-0.4c0-7.8,1.1-10.7,1.2-18.5C477.1,157.2,475.9,155.9,472.1,156.1z"/>
		<path class="st0" d="M404.1,197.7c-0.4-0.2-0.8-0.5-1.2-0.8c-0.5-0.4-0.8-0.8-0.9-1.4c-0.1-1.2,1-2,1.9-2.8    c6.6-5.1,10.3-13.7,9.5-22c-0.9-8.3-6.3-16-13.8-19.6c-5.8-2.8-12.4-3.2-18.8-3.6c-7.7-0.4-15.4-0.9-23.1-1.3    c-0.9-0.1-2-0.1-2.7,0.5c-0.7,0.6-0.9,1.6-0.9,2.5c-2,33.1-4.9,66-7.6,99.6c-0.1,1.8-0.2,5.1,1.8,6c1.9,0.9,5.8-0.8,7.8-1.3    c5.3-1.3,10.6-2.6,15.9-3.9c11.1-2.7,22.6-5.7,31.1-13.2c4.8-4.2,8.4-9.8,10.3-15.9c1.5-4.8,1.9-10.3-0.4-14.7    C410.9,202.3,407.6,199.7,404.1,197.7z M386.8,220.5c-3.9,2.1-8.2,3.2-13,4.6c-2,0.6-4-0.9-4-3v-10c0-1.6,1.2-3,2.8-3.1    c3.5-0.4,7-0.8,10.5-0.5c2.5,0.2,6.8,2.1,6.9,3.6C390.3,214.9,388.9,219.4,386.8,220.5z M390.4,182.1c-0.2,2.4-1.8,6-3.6,6.6    c-3.5,1.2-7.3,1.5-11.4,2c-2,0.2-3.6-1.4-3.5-3.4c0.3-3.4,0.5-6.1,0.8-8.9c0.1-0.7,1.1-1.9,1.8-1.9c4.1,0,8.4-0.3,12.3,0.5    C388.4,177.4,390.6,180.4,390.4,182.1z"/>
		<path class="st0" d="M332.7,156.8c-6.9-8.3-18.2-13.5-28.7-10.9c-9.4,2.4-16.4,10.3-21.5,18.5c-1,1.6-1.9,3.2-2.8,4.8    c-8.2,14.7-12.7,31.5-13.3,48.3c-0.3,8.4,0.4,16.9,2.1,25.1c0.3,1.5,0.7,3.8,2.7,3.4c1.9-0.4,4.2-2.9,5.7-4    c3.9-2.9,7.8-5.9,11.6-8.8c0.9-0.7,1.9-1.5,2.5-2.5c1.4-2.3,0.6-5.2,0-7.9c-2.3-10.3-1.2-21.4,3-31c1.5-3.4,3.4-6.7,6.3-9    s6.8-3.6,10.4-2.6c5.7,1.6,8.4,8.1,9.3,13.9c1.3,8.3,0.4,17-2.5,24.9c-1.4,3.8-3.3,7.7-2.6,11.6c0.4,2.2,1.7,4.3,2.4,6.4    c2.4,7-0.5,14.7,0.6,21.9c0.1,0.9,0.4,1.9,1.3,2.2c14.8-16.7,23.5-38.5,24.6-60.7c0.2-4.5,0.1-9.1-0.3-13.6    C342.5,176,339.5,165.1,332.7,156.8z"/>
		<path class="st0" d="M425.4,142.8c0.8-17.3,1.1-34.6,0.9-51.8c0-0.9,0-1.8-0.5-2.6c-0.5-0.7-1.3-1.2-2.1-1.6l-10.6-5.4    c-1.6-0.8-3.5,0.3-3.5,2.2c0,7.6-0.1,15.2-0.1,22.8c0,0.1,0,0.1,0,0.2c0,0.1-0.1,0.1-0.2,0.1c-0.3,0.1-0.7,0.2-1,0    c-0.2-0.1-0.3-0.3-0.5-0.5c-2.8-4-4.8-8.5-6.6-12.9c-3-7.3-5.7-15-10.5-21.4c-3-4.1-7-7.6-11.6-9.6c-2-0.9-4.3,0.5-4.5,2.7    c-1.8,22.8-3.3,45.5-4.7,68.3c-0.1,1.7-0.2,3.4,0.2,5.1c0.1,0.6,0.3,1.5,0.9,1.8c0.8,0.4,1.9,0.4,2.7,0.5    c3.7,0.7,7.5,1.1,11.3,1.4c0.6,0,1.2,0.1,1.8-0.2c1-0.5,1.1-1.8,1.2-2.9c0.7-9.6,1.3-19.1,2-28.7c0.4-0.1,0.7-0.4,1.1-0.4    c0.3-0.1,0.2-0.2,0.5,0c0.2,0.2,0.4,0.7,0.6,1c0.7,1.3,1.3,2.6,2,3.9c4.1,7.9,8.3,15.8,12.4,23.7c1.2,2.3,2.5,4.6,4.6,5.9    c3.1,1.9,7,1.1,10.7,1.3C423.7,146,425.3,144.6,425.4,142.8z"/>
		<path class="st0" d="M350.4,137.8c4.7,1.4,9.8,1.3,15.5,1.9c-0.3-2.5-0.4-4.3-0.8-6.1c-4.8-23.8-10.2-47.6-14-71.6    c-1.6-10-5.2-16.3-14.7-19.8c-3.8-1.4-5.3-1.1-6.4,2.7c-2.8,9-5.6,18-8.8,26.9c-6.7,18.4-13.5,36.8-20.5,55    c-1.4,3.7-0.9,5.3,3.1,5.5c2.6,0.2,5.3,0.4,7.9,0.8c7.1,1.1,6.9,1.1,9.3-5.8c3.6-10.5,0.8-10.8,13.4-8.2    c11.1,2.3,9.8-0.9,11.6,11.9C346.2,133.7,348.4,137.2,350.4,137.8z M336.6,98.9c-0.4-0.1-0.7-0.1-0.8-0.2    c-1.7-0.5-3.7-1.2-3.8-3.3c-0.1-1,0.3-1.9,0.6-2.8c1.7-4.7,3.4-9.3,5.2-14c0.1-0.3,0.2-0.6,0.5-0.7c0.4-0.2,0.8,0,1,0.4    c0.2,0.3,0.3,0.7,0.3,1.1c0.8,6.7,1.6,13.4,2.4,20.1C342.1,99.7,338.3,99.2,336.6,98.9z"/>
		<path class="st0" d="M265.6,120.5c6,11.3,19.1,12.1,25.8,1.2c3.7-6,6.6-12.8,8.2-19.5c5.2-22.5,5.3-45.4,5.1-68.3    c0-1.4-1-3.4-2.1-4c-4-1.8-8.1-3-13.8-5.1c0,10.3,0.3,19.2-0.1,28.1c-0.4,11.2-1.2,22.5-2.2,33.7c-0.3,3.6-1.4,7.1-2.7,10.5    c-0.5,1.4-2.7,2.9-4.1,2.9c-1.3,0-2.9-1.7-3.9-3c-1-1.2-1.5-2.9-2.5-5.1c-4.2,4.6-8,8.6-11.6,12.9c-0.7,0.9-1,2.6-0.6,3.7    C262.4,112.5,263.6,116.7,265.6,120.5z"/>
		<path class="st0" d="M477,130.1c-2.6-2.7-6-4.7-9.3-6.6c-4.7-2.7-9.7-5-14.4-7.6c-1.1-0.6-2-1.5-3-2.4c-0.4-0.4-0.5-0.9-0.2-1.4    l0,0c0.3-0.5,0.9-0.7,1.4-0.5c4.2,1.6,8.5,3,12.6,4.9c6.7,3.1,7,3.3,11.4-3c0.4-0.5,0.3-1.2-0.2-1.6c-9.3-7.1-18.6-13.6-30.2-15.8    c-8.9-1.7-15.4,5.2-13.6,14.1c1.3,6.5,5.3,11.1,10.5,14.5c4.7,3,10.1,5,15.1,7.4c2.1,1,4.7,1.7,4.3,4.6c-0.1,0.5-0.5,0.9-1,1    c-5.6,0.6-11-0.9-16.7-4.4c-6.5-4-6.4-3.9-11.7,1.2c-3.4,3.2-2.9,5.5,0.7,7.8c7.3,4.7,15.4,7.3,23.9,7.6c5.4,0.2,11-0.4,16.1-2.1    C481.2,145.1,483.1,136.6,477,130.1z"/>
		<path class="st0" d="M428.6,172.4c-3.7,0-6,1.1-6.2,5.3c-0.5,10.2-1.2,20.5-1.8,30.7c0,0.6,0.3,1.2,0.5,2.1    c0.9-0.4,1.6-0.5,1.9-0.9c5.3-6.6,11.4-12,19.5-15c0.7-0.2,1.5-1.1,1.5-1.8c0.5-7,0.8-14,1.1-20.4    C439.1,172.4,433.8,172.4,428.6,172.4z"/>
		<path class="st0" d="M442.7,154c-5.3-0.4-10.2-0.7-15.2-0.8c-1.3,0-3.4,1.4-3.7,2.5c-0.8,3.2-0.9,6.5-1.2,9.8    c-0.3,3,0.7,4.8,4.2,4.6c5.5-0.4,11-0.5,16.4-1.1c1.2-0.1,3-1.8,3.2-2.9c0.3-2.6,0.2-5.2,0.2-8C446.5,155.9,444.8,154.1,442.7,154    z"/>
	</g>
	<g>
		<ellipse class="st2" cx="275.5" cy="312.3" rx="33" ry="4.8"/>
		<path class="st3" d="M304.7,270.9c-0.1,5-0.8,10.1-2,15c-2.1,8.5-6.2,17.1-13.6,21.9c-5,3.2-11,4.5-17,4.5    c-5.7,0.1-11.6-0.9-16.6-3.8c-4.9-2.7-8-7.9-9-13.3c-0.3-1.7-0.4-3.4,0.3-5c0.9-2,3-3.2,4.8-4.4c16-10.5,24.7-29.1,39.2-41.5    c1.7-1.4,3.9-2.9,6-2.1c1.4,0.6,2.3,2.1,2.9,3.5C303.3,253.5,304.9,262.2,304.7,270.9z"/>
		<path class="st4" d="M288.1,273.1c0.1,1.5,0,3.1-0.2,4.6c-0.6,4.1-2.2,8.2-5.6,10.8c-2.6,2-6.3,2.9-9.6,2.4    c-5.6-0.9-10.8-5.5-6.7-10.6c2.5-3.2,5.2-6.2,8.1-9.2c2.8-2.8,5.8-5.6,9.5-7.3c0.3-0.1,0.6-0.3,0.9-0.2c0.3,0.1,0.5,0.3,0.7,0.5    C287,266.8,287.9,269.9,288.1,273.1z"/>
	</g>
	<g>
		<ellipse class="st2" cx="422.6" cy="262.5" rx="25.4" ry="3.7"/>
		<path class="st3" d="M450.1,230.2c-0.1,5.2-0.9,10.4-2.6,15.3c-1.6,5-4.1,9.8-8.2,13.1c-5,4.1-11.7,5.3-18.1,4.9    c-4-0.2-8.1-1.1-11.6-3.3c-3.6-2.3-5.8-6.4-6.6-10.6c-0.2-1.1-0.3-2.2,0-3.3c0.6-2,2.6-3.1,4.3-4.3c12.9-8.5,19.9-23.7,31.8-33.6    c1.1-1,2.5-1.9,4-1.7c1.7,0.3,2.6,2,3.3,3.6C449,216.7,450.2,223.5,450.1,230.2z"/>
		<path class="st4" d="M436.7,232c0.1,1.2,0,2.5-0.2,3.7c-0.5,3.3-1.8,6.6-4.5,8.7c-2.1,1.6-5,2.3-7.8,1.9c-4.5-0.7-8.7-4.4-5.4-8.5    c2-2.6,4.2-5,6.5-7.4c2.2-2.3,4.7-4.5,7.7-5.9c0.2-0.1,0.5-0.2,0.7-0.1c0.2,0.1,0.4,0.3,0.6,0.4    C435.8,226.9,436.5,229.5,436.7,232z"/>
	</g>
	<g>
		<ellipse class="st2" cx="72.8" cy="294.2" rx="22" ry="3.2"/>
		<path class="st3" d="M72.7,293.3c-11.4-0.5-23-10.9-25.3-23.3c-0.4-2-0.4-4.2-0.3-6.3c0.1-2.7,2.7-4.5,5.3-3.7    c1.7,0.5,3.3,1,4.9,1.6c10.3,3.8,20.5,7.8,30.7,11.7c5.7,2.2,6.4,3.9,3.2,9.2C87,289.4,79.8,293.6,72.7,293.3z"/>
		<path class="st4" d="M71.4,284.8c-5.6-0.2-11.2-5.3-12.4-11.4c-0.2-1-0.2-2-0.1-3.1c0.1-1.3,1.3-2.2,2.6-1.8    c0.8,0.2,1.6,0.5,2.4,0.8c5,1.9,10,3.8,15,5.7c2.8,1.1,3.1,1.9,1.5,4.5C78.3,282.8,74.8,284.9,71.4,284.8z"/>
	</g>
	<path class="st5" d="M36.7,195c0,0,2.6-13.5,13.5-2.1c0,0,17.5,20,24.6,37.2c0,0,6,15.4-11.4,8.6c0,0-18.2-9.3-23-14.1   C40.5,224.6,34.5,223.3,36.7,195z"/>
	<path class="st5" d="M117.3,245.6c0,0,14.6-12.9,43.7-16.4c0,0,12.7-1.8,12.9,10.6l0.6,22.1c0,0-1.9,9.2-13.8,6.9   c0,0-35.7-7-39.6-9.6C121,259.2,109.7,253.5,117.3,245.6z"/>
</g>
</svg>