<?xml version="1.0" encoding="UTF-8"?>
<svg id="katman_1" xmlns="http://www.w3.org/2000/svg" version="1.1" viewBox="0 0 496.41 251.12">
  <!-- Generator: Adobe Illustrator 29.8.1, SVG Export Plug-In . SVG Version: 2.1.1 Build 2)  -->
  <defs>
    <style>
      .st0 {
        fill: #1d71b8;
      }

      .st1 {
        fill: #010101;
      }
    </style>
  </defs>
  <path class="st0" d="M28.36,120.8H5.74c-3.75,0-6.41-3.65-5.27-7.22L29.55,22.99c9.69-30.18,52.56-29.71,61.58.68l26.72,90.02c1.05,3.55-1.6,7.11-5.3,7.11h-22.49c-2.49,0-4.67-1.66-5.33-4.06l-21.88-79.06c-.75-2.7-4.56-2.74-5.36-.06l-23.82,79.24c-.7,2.34-2.86,3.94-5.3,3.94Z"/>
  <circle class="st0" cx="59.14" cy="95.47" r="15.96"/>
  <path class="st0" d="M195.58,120.8h-22.62c-3.75,0-6.41-3.65-5.27-7.22l29.08-90.58c9.69-30.18,52.56-29.71,61.58.68l26.72,90.02c1.05,3.55-1.6,7.11-5.3,7.11h-22.49c-2.49,0-4.67-1.66-5.33-4.06l-21.88-79.06c-.75-2.7-4.56-2.74-5.36-.06l-23.82,79.24c-.7,2.34-2.86,3.94-5.3,3.94Z"/>
  <circle class="st0" cx="226.36" cy="95.47" r="15.96"/>
  <path class="st0" d="M127.48,47.3l.67,66.9c.04,4.36.42,6.83-1.44,10.77-2.84,6.04-9.5,10.02-19.27,4.05-2.37-1.45-5.1-2.25-7.88-2.37l-14.2-.63c-2.08-.09-3.76,1.69-3.55,3.76h0c1.68,16.49,14.22,27.94,30.61,30.43,5.32.81,10.75.76,16.05-.13,17.37-2.93,29.86-18.36,29.86-35.97h0s.54-76.82.54-76.82c.01-2.22-1.78-4.03-4-4.03h-23.4c-2.22,0-4.02,1.82-4,4.04Z"/>
  <path class="st0" d="M292.02,115.3V50.27c.01-8.61,2.15-17.09,6.24-24.66.34-.63.69-1.28,1.05-1.95,16.3-30.18,59.37-30.85,76.59-1.19.2.35.4.69.6,1.03,6.12,10.54,9.34,22.5,9.35,34.69,0,18.46,0,45.61,0,57.12,0,3.03-2.46,5.48-5.49,5.48h-21.27c-3.03,0-5.49-2.46-5.49-5.49v-63.99c0-3.81-.92-7.55-2.69-10.92l-.03-.06c-5.13-9.8-19.2-9.68-24.17.2h0c-1.65,3.28-2.51,6.9-2.51,10.57v64.2c0,3.03-2.46,5.49-5.49,5.49h-21.21c-3.03,0-5.49-2.46-5.49-5.49Z"/>
  <circle class="st0" cx="142.91" cy="18.95" r="15.96"/>
  <path class="st0" d="M486.32.72h-54.23c-6.51,0-12.93,1.49-18.78,4.34h0c-27.48,13.43-27.71,52.51-.4,66.27h0c6.1,3.08,12.85,4.68,19.68,4.68h28.28s0,0,0,0c6.13,1.42,6.7,9.92.82,12.16l-.82.31h-61.49c-2.25,0-4.08,1.83-4.08,4.08v24.17c0,2.25,1.83,4.08,4.08,4.08h46.14c10.29,0,19.05-1.61,25.23-3.21,12.37-3.21,21.94-13.03,24.6-25.53,3.49-16.43-1.69-35.9-14.6-42.58h0c-8.92-5.43-19.17-6.26-29.61-6.26h-21.1c-.7,0-1.4-.13-2.06-.38h0c-4.86-1.85-5.02-8.65-.26-10.73l.15-.06c.73-.32,1.52-.48,2.32-.48h56.65c2.29,0,4.13-1.88,4.08-4.17l-.51-22.68c-.05-2.22-1.86-3.99-4.08-3.99Z"/>
  <path class="st1" d="M68.91,135.4c-5.46-3.38-11.11-5.21-17.22-5.82-20.72-2.08-32.13,2.14-42.86,16.29h0c-5.24,6.91-8.11,15.33-8.18,24.01L0,246.5c-.02,2.22,1.78,4.03,4,4.03h24.12c2.21,0,4-1.79,4-4v-72.55c0-1.56.31-3.1.9-4.53l.09-.21c3.98-9.61,17.53-9.78,21.75-.27h0c.68,1.53,1.03,3.19,1.02,4.86l-.31,72.69c0,2.22,1.78,4.02,4,4.02h24.02c2.21,0,4-1.79,4-4v-58.22c0-2.84,1.01-5.59,2.86-7.75l.94-1.11c5.14-6.03,14.65-5.35,18.9,1.34l.1.15c1.24,1.96,1.88,4.16,1.88,6.43,0,11.31,0,47.13,0,59.16,0,2.21,1.79,3.99,4,3.99h23.25c2.21,0,4-1.79,4-4v-79.75l-4.15,2.43c-28.83,16.86-65.57-.77-70.45-33.81h0Z"/>
  <path class="st1" d="M269.54,129.86h54.39c7.82,0,15.56,1.67,22.68,4.91h0c20.76,9.43,25.86,36.62,9.91,52.93l-1.63,1.66h0c17.51,15.73,14.27,44.03-6.34,55.39l-1.75.96c-8.11,4.47-17.22,4.82-26.48,4.82h-50.79c-2.21,0-4-1.79-4-4v-112.67c0-2.21,1.79-4,4-4ZM307.09,206.5c-2.21,0-4-1.79-4-4v-24.38c0-2.21,1.79-4,4-4h22.57c5.3-1.99,4.99-9.6-.45-11.15h0c-1.45-.41-2.95-.62-4.46-.62h-27.08v55.85l29.75.58c.74.01,1.48-.12,2.17-.39h0c2.53-.99,3.85-3.19,4-5.46.22-3.53-2.79-6.44-6.33-6.44h-20.14Z"/>
  <rect class="st1" x="372.45" y="168.89" width="32.45" height="81.21" rx="4" ry="4"/>
  <circle class="st1" cx="388.67" cy="145.39" r="17.28"/>
  <path class="st1" d="M492.41,250.53h-73.92c-2.21,0-4-1.79-4-4v-113.87c0-2.21,1.79-4,4-4h23.92c2.21,0,4,1.79,4,4v82.47c0,2.21,1.79,4,4,4h42c2.21,0,4,1.79,4,4v23.4c0,2.21-1.79,4-4,4Z"/>
  <path class="st1" d="M153.09,178.35c0-21.05,3.18-20.54,9.24-28.97,7.38-10.27,17.47-20.32,41.48-20.32,26.11,0,42.39,15.48,48.34,27.67,3.27,6.7,4.87,14.09,4.87,21.55v27.31s1.58,43.92-53.21,45.51c0,0-32.19,1.5-45.77-25.66-3.38-6.76-4.95-14.28-4.95-21.83v-25.26ZM185.09,201.56c0,6.04,3.1,11.74,8.34,14.74,3.13,1.79,7.39,3.09,13.17,3.12,10.57.04,15.41-4.67,17.62-8.8,1.27-2.38,1.85-5.06,1.85-7.76v-23.8c0-2.29-.43-4.57-1.34-6.66-2.1-4.82-7.29-11.88-19.67-11.63-11.16.22-16.11,5.64-18.29,9.99-1.15,2.29-1.68,4.85-1.68,7.41v23.39Z"/>
</svg>